<svg xmlns="http://www.w3.org/2000/svg" viewBox="0 0 600 360" fill="none">
  <defs><linearGradient id="sky" x1="80" y1="35" x2="490" y2="330" gradientUnits="userSpaceOnUse"><stop stop-color="#ECEBFF"/><stop offset="1" stop-color="#F9E6DC"/></linearGradient><linearGradient id="sea" x1="286" y1="219" x2="298" y2="344" gradientUnits="userSpaceOnUse"><stop stop-color="#9FD5C0"/><stop offset="1" stop-color="#5FAE9D"/></linearGradient></defs>
  <rect x="45" y="34" width="510" height="292" rx="28" fill="url(#sky)"/>
  <circle cx="443" cy="104" r="38" fill="#F5C17F"/>
  <path d="M46 224c81-81 123-112 193-70 50 30 82 37 139-14 57-50 103-48 177 19v167H46V224Z" fill="#A9A3DF"/>
  <path d="M47 249c80-57 131-69 202-23 69 44 115 33 172-11 45-34 85-38 134-10v121H47V249Z" fill="#7E9FB4"/>
  <path d="M47 263c62-20 118-14 176 15 61 30 112 34 179 0 52-27 97-30 153-11v59H47v-63Z" fill="url(#sea)"/>
  <path d="M123 271c38 14 63 19 100 19m77 11c31 2 56-3 85-17m46 13c17-8 32-11 51-10" stroke="#EAF8EC" stroke-width="4" stroke-linecap="round" opacity=".8"/>
  <path d="m238 110 104-33-45 48 50 24-124-18-36 29 13-40-28-26 66 16Z" fill="#FFF" stroke="#6B68A8" stroke-width="3" stroke-linejoin="round"/>
  <path d="M120 286c4-25 19-43 42-54m-42 54c-13-19-30-27-49-28m49 28c12-17 26-23 43-22" stroke="#4D866A" stroke-width="6" stroke-linecap="round"/>
  <path d="M126 323c1-12-1-24-6-37m-6 37c1-12 3-24 7-37m30 37c0-10 3-19 9-27" stroke="#4D866A" stroke-width="5" stroke-linecap="round"/>
  <circle cx="500" cy="262" r="7" fill="#F3BC7A"/><circle cx="478" cy="282" r="4" fill="#FFF"/><path d="M89 96c7-12 18-20 32-22-2 13-10 23-22 30m13-47c2-12 10-22 23-29 2 13-2 24-11 33" stroke="#659275" stroke-width="4" stroke-linecap="round"/>
</svg>
